<svg width="1436" height="1189" viewBox="0 0 1436 1189" fill="none" xmlns="http://www.w3.org/2000/svg">
<path d="M210.7 504.858C267.9 505.258 325.2 504.958 382.4 505.058C428.1 504.058 475.5 508.358 516.8 529.358C528.1 535.758 539.8 541.958 548.6 551.658C557 560.658 567.3 568.358 572.9 579.558C583.6 596.958 589.3 616.858 591 637.058C593.6 671.158 587.7 706.358 571.4 736.658C547.9 779.758 502.6 806.758 455.9 818.058C457.3 823.358 459.9 828.258 462.3 833.158C494.8 901.858 527.2 970.558 559.7 1039.26C562.4 1045.06 564.9 1050.96 568.2 1056.56C519.7 1056.06 471.2 1056.36 422.6 1056.46C394.2 988.558 365.9 920.658 337.6 852.758C335 846.458 332.2 840.358 330.2 833.858C312 833.558 293.8 833.958 275.6 833.658C262.6 907.858 250.8 982.258 237.8 1056.46C196.2 1056.16 154.7 1056.26 113.1 1056.46C126.4 977.058 141.1 897.758 154.9 818.458C173.7 713.958 191.9 609.358 210.7 504.858ZM315.4 609.658C314.6 623.658 310.7 637.358 308.7 651.258C303.5 681.658 297.3 711.858 292.8 742.358C317.9 742.158 342.9 742.558 368 742.058C385.8 740.458 403.9 738.458 420.5 731.258C431.2 726.458 442.2 721.058 449.4 711.458C461.1 695.458 464.6 674.258 460.7 655.058C458.6 642.358 451.8 629.258 439.7 623.458C418.4 611.658 393.6 610.458 369.8 609.458C351.7 609.558 333.6 609.058 315.4 609.658Z" fill="white"/>
<path d="M780.3 405.159C814.8 378.859 858.7 367.058 901.7 368.058C930.9 368.958 960.2 374.858 986.4 387.858C1006.6 399.258 1025.6 413.958 1037.7 434.058C1061.2 470.458 1061.1 518.458 1044.2 557.458C1035.1 576.258 1022.7 593.159 1008.6 608.359C989.7 628.659 967 644.759 945.6 662.159C906 692.659 867.3 724.158 827.5 754.258C827.2 755.158 826.7 756.858 826.5 757.758C890.1 757.658 953.8 757.758 1017.4 757.758C1011.7 789.058 1006.3 820.358 1000.9 851.758H659.6C660.7 837.758 664.3 824.059 666.2 810.159C669.4 793.458 671.5 776.559 675.4 760.059C705 737.059 734.6 713.959 764.2 690.859C782.6 677.659 799.4 662.459 817.9 649.359C831.8 637.359 847 627.059 861.2 615.359C876.4 603.059 893 592.359 906.2 577.758C922 562.658 938.2 545.858 943.4 523.958C945.7 508.658 944.3 491.858 934.9 479.058C924.1 465.558 906.1 460.058 889.2 460.558C873 459.558 856.6 464.259 843.5 473.759C838.1 478.459 833.1 483.659 828.2 488.859C819 500.159 814 514.058 809 527.558C784.8 521.458 760 517.459 735.6 511.859C727.6 510.258 719.6 508.358 711.5 507.158C719.7 479.358 733.2 452.859 752.3 430.959C759.9 420.859 770.3 413.159 780.3 405.159Z" fill="white"/>
<path d="M943 232.049C943 232.049 1025.5 228.286 1097.5 286.549C1175 349.263 1175 450.5 1175 450.5" stroke="white" stroke-width="60" stroke-linecap="round"/>
<path d="M976 93.0696C976 93.0696 1092.64 87.7478 1194.43 170.143C1304 258.832 1307.5 401 1307.5 401" stroke="white" stroke-width="60" stroke-linecap="round"/>
</svg>
